<svg height="16" viewBox="0 0 16 16" width="16" xmlns="http://www.w3.org/2000/svg"><g fill="#444"><path d="m14 12c0 1.105-.895 2-2 2s-2-.895-2-2 .895-2 2-2 2 .895 2 2z"/><path d="m11.7 16c-.8 0-1.6-.2-2.3-.7l-6.2-3.3c-.5-.4-.9-.6-1.3-1-1.2-1.2-1.9-2.9-1.9-4.6s.7-3.3 1.9-4.5 2.8-1.9 4.5-1.9 3.3.7 4.6 1.9c.4.4.6.7 1 1.2l3.5 6.4c1 1.7.7 3.8-.7 5.2-.9.9-1.9 1.3-3.1 1.3zm-5.3-15c-1.4 0-2.8.6-3.8 1.6s-1.6 2.4-1.6 3.8c0 1.5.6 2.8 1.6 3.8.3.3.6.5 1.1.8l6.3 3.4c.6.4 1.2.5 1.8.5.9 0 1.7-.3 2.3-1 1.1-1.1 1.3-2.7.5-4l-3.5-6.4c-.3-.4-.5-.7-.8-1-1.1-.9-2.4-1.5-3.9-1.5z"/><path d="m11 7v-1l-1.4-.5c-.1-.2-.1-.3-.2-.5l.6-1.3-.7-.7-1.3.6c-.2-.1-.3-.1-.5-.2l-.5-1.4h-1l-.5 1.4c-.2.1-.3.1-.5.2l-1.3-.6-.7.7.6 1.3c-.1.2-.1.3-.2.5l-1.4.5v1l1.4.5c.1.2.1.3.2.5l-.6 1.3.7.7 1.3-.6c.2.1.3.2.5.2l.5 1.4h1l.5-1.4c.2-.1.3-.1.5-.2l1.3.6.7-.7-.6-1.3c.1-.2.2-.3.2-.5zm-4.5 1c-.8 0-1.5-.7-1.5-1.5s.7-1.5 1.5-1.5 1.5.7 1.5 1.5-.7 1.5-1.5 1.5z"/></g></svg>