<svg viewBox="0 0 24 24" xmlns="http://www.w3.org/2000/svg"><path d="m9 15a1 1 0 1 0 1 1 1 1 0 0 0 -1-1zm-7-1a1 1 0 0 0 -1 1v2a1 1 0 0 0 2 0v-2a1 1 0 0 0 -1-1zm20 0a1 1 0 0 0 -1 1v2a1 1 0 0 0 2 0v-2a1 1 0 0 0 -1-1zm-5-7h-4v-1.28a2 2 0 0 0 1-1.72 2 2 0 0 0 -4 0 2 2 0 0 0 1 1.72v1.28h-4a3 3 0 0 0 -3 3v9a3 3 0 0 0 3 3h10a3 3 0 0 0 3-3v-9a3 3 0 0 0 -3-3zm-3.28 2-.5 2h-2.44l-.5-2zm4.28 10a1 1 0 0 1 -1 1h-10a1 1 0 0 1 -1-1v-9a1 1 0 0 1 1-1h1.22l.78 3.24a1 1 0 0 0 1 .76h4a1 1 0 0 0 1-.76l.78-3.24h1.22a1 1 0 0 1 1 1zm-3-4a1 1 0 1 0 1 1 1 1 0 0 0 -1-1z"/></svg>