<svg viewBox="0 0 17 17" xmlns="http://www.w3.org/2000/svg"><g fill="#434343" fill-rule="evenodd" transform="translate(1)"><path d="m7.984.053c-4.385 0-7.939 3.561-7.939 7.953s3.555 7.953 7.939 7.953 7.939-3.561 7.939-7.953-3.554-7.953-7.939-7.953zm-.494 1.992c.838 0 1.519.654 1.519 1.46s-.681 1.46-1.519 1.46c-.84 0-1.519-.654-1.519-1.46s.679-1.46 1.519-1.46zm.545 12.863c-3.051 0-5.693-3.99.066-6.924 5.256-2.676 2.803-7.24-.066-6.976 4.375 0 6.939 3.111 6.939 6.95.001 3.839-3.107 6.95-6.939 6.95z"/><ellipse cx="8.493" cy="11.445" rx="1.493" ry="1.445"/></g></svg>